<svg height="2206" width="720" xmlns="http://www.w3.org/2000/svg">
<rect height="2206" fill="#555" width="720"></rect>
<text fill="#7f7" font-family="Courier New" font-size="12" xml:space="preserve">
<tspan x="10" y="26">15 megabytes installed</tspan>
<tspan x="10" y="42"></tspan>
<tspan x="10" y="58">node_modules</tspan>
<tspan x="10" y="74">└─┬ gulp-6to5@3.0.0 </tspan>
<tspan x="10" y="90">  ├─┬ 6to5-core@3.6.5 </tspan>
<tspan x="10" y="106">  │ ├── acorn-6to5@0.11.1-31 </tspan>
<tspan x="10" y="122">  │ ├── ast-types@0.6.16 </tspan>
<tspan x="10" y="138">  │ ├─┬ chalk@0.5.1 </tspan>
<tspan x="10" y="154">  │ │ ├── ansi-styles@1.1.0 </tspan>
<tspan x="10" y="170">  │ │ ├── escape-string-regexp@1.0.5 </tspan>
<tspan x="10" y="186">  │ │ ├─┬ has-ansi@0.1.0 </tspan>
<tspan x="10" y="202">  │ │ │ └── ansi-regex@0.2.1 </tspan>
<tspan x="10" y="218">  │ │ ├── strip-ansi@0.3.0 </tspan>
<tspan x="10" y="234">  │ │ └── supports-color@0.2.0 </tspan>
<tspan x="10" y="250">  │ ├── commander@2.6.0 </tspan>
<tspan x="10" y="266">  │ ├── core-js@0.5.4 </tspan>
<tspan x="10" y="282">  │ ├─┬ debug@2.6.4 </tspan>
<tspan x="10" y="298">  │ │ └── ms@0.7.3 </tspan>
<tspan x="10" y="314">  │ ├─┬ detect-indent@3.0.0 </tspan>
<tspan x="10" y="330">  │ │ ├── get-stdin@3.0.2 </tspan>
<tspan x="10" y="346">  │ │ └─┬ repeating@1.1.3 </tspan>
<tspan x="10" y="362">  │ │   └─┬ is-finite@1.0.2 </tspan>
<tspan x="10" y="378">  │ │     └── number-is-nan@1.0.1 </tspan>
<tspan x="10" y="394">  │ ├── estraverse@1.9.1 </tspan>
<tspan x="10" y="410">  │ ├── esutils@1.1.6 </tspan>
<tspan x="10" y="426">  │ ├── fs-readdir-recursive@0.1.0 </tspan>
<tspan x="10" y="442">  │ ├── globals@5.1.0 </tspan>
<tspan x="10" y="458">  │ ├── js-tokenizer@1.3.3 </tspan>
<tspan x="10" y="474">  │ ├── lodash@3.0.0 </tspan>
<tspan x="10" y="490">  │ ├─┬ output-file-sync@1.1.0 </tspan>
<tspan x="10" y="506">  │ │ └─┬ mkdirp@0.5.1 </tspan>
<tspan x="10" y="522">  │ │   └── minimist@0.0.8 </tspan>
<tspan x="10" y="538">  │ ├── private@0.1.6 </tspan>
<tspan x="10" y="554">  │ ├─┬ regenerator-6to5@0.8.10-1 </tspan>
<tspan x="10" y="570">  │ │ ├─┬ commoner@0.10.8 </tspan>
<tspan x="10" y="586">  │ │ │ ├─┬ detective@4.5.0 </tspan>
<tspan x="10" y="602">  │ │ │ │ ├── acorn@4.0.11 </tspan>
<tspan x="10" y="618">  │ │ │ │ └── defined@1.0.0 </tspan>
<tspan x="10" y="634">  │ │ │ ├─┬ glob@5.0.15 </tspan>
<tspan x="10" y="650">  │ │ │ │ ├─┬ inflight@1.0.6 </tspan>
<tspan x="10" y="666">  │ │ │ │ │ └── wrappy@1.0.2 </tspan>
<tspan x="10" y="682">  │ │ │ │ ├─┬ minimatch@3.0.3 </tspan>
<tspan x="10" y="698">  │ │ │ │ │ └─┬ brace-expansion@1.1.7 </tspan>
<tspan x="10" y="714">  │ │ │ │ │   ├── balanced-match@0.4.2 </tspan>
<tspan x="10" y="730">  │ │ │ │ │   └── concat-map@0.0.1 </tspan>
<tspan x="10" y="746">  │ │ │ │ ├── once@1.4.0 </tspan>
<tspan x="10" y="762">  │ │ │ │ └── path-is-absolute@1.0.1 </tspan>
<tspan x="10" y="778">  │ │ │ ├── graceful-fs@4.1.11 </tspan>
<tspan x="10" y="794">  │ │ │ ├── iconv-lite@0.4.16 </tspan>
<tspan x="10" y="810">  │ │ │ ├── q@1.5.0 </tspan>
<tspan x="10" y="826">  │ │ │ └─┬ recast@0.11.23 </tspan>
<tspan x="10" y="842">  │ │ │   ├── ast-types@0.9.6 </tspan>
<tspan x="10" y="858">  │ │ │   ├── esprima@3.1.3 </tspan>
<tspan x="10" y="874">  │ │ │   └── source-map@0.5.6 </tspan>
<tspan x="10" y="890">  │ │ └── through@2.3.8 </tspan>
<tspan x="10" y="906">  │ ├─┬ regexpu@1.1.0 </tspan>
<tspan x="10" y="922">  │ │ ├─┬ recast@0.9.18 </tspan>
<tspan x="10" y="938">  │ │ │ └── esprima-fb@10001.1.0-dev-harmony-fb </tspan>
<tspan x="10" y="954">  │ │ ├── regenerate@1.3.2 </tspan>
<tspan x="10" y="970">  │ │ ├── regjsgen@0.2.0 </tspan>
<tspan x="10" y="986">  │ │ └─┬ regjsparser@0.1.5 </tspan>
<tspan x="10" y="1002">  │ │   └── jsesc@0.5.0 </tspan>
<tspan x="10" y="1018">  │ ├── roadrunner@1.0.4 </tspan>
<tspan x="10" y="1034">  │ ├─┬ source-map@0.1.43 </tspan>
<tspan x="10" y="1050">  │ │ └── amdefine@1.0.1 </tspan>
<tspan x="10" y="1066">  │ ├─┬ source-map-support@0.2.9 </tspan>
<tspan x="10" y="1082">  │ │ └── source-map@0.1.32 </tspan>
<tspan x="10" y="1098">  │ ├── supports-color@1.2.0 </tspan>
<tspan x="10" y="1114">  │ └─┬ useragent@2.1.13 </tspan>
<tspan x="10" y="1130">  │   ├── lru-cache@2.2.4 </tspan>
<tspan x="10" y="1146">  │   └─┬ tmp@0.0.31 </tspan>
<tspan x="10" y="1162">  │     └── os-tmpdir@1.0.2 </tspan>
<tspan x="10" y="1178">  ├─┬ gulp-util@3.0.8 </tspan>
<tspan x="10" y="1194">  │ ├── array-differ@1.0.0 </tspan>
<tspan x="10" y="1210">  │ ├── array-uniq@1.0.3 </tspan>
<tspan x="10" y="1226">  │ ├── beeper@1.1.1 </tspan>
<tspan x="10" y="1242">  │ ├─┬ chalk@1.1.3 </tspan>
<tspan x="10" y="1258">  │ │ ├── ansi-styles@2.2.1 </tspan>
<tspan x="10" y="1274">  │ │ ├─┬ has-ansi@2.0.0 </tspan>
<tspan x="10" y="1290">  │ │ │ └── ansi-regex@2.1.1 </tspan>
<tspan x="10" y="1306">  │ │ ├── strip-ansi@3.0.1 </tspan>
<tspan x="10" y="1322">  │ │ └── supports-color@2.0.0 </tspan>
<tspan x="10" y="1338">  │ ├── dateformat@2.0.0 </tspan>
<tspan x="10" y="1354">  │ ├─┬ fancy-log@1.3.0 </tspan>
<tspan x="10" y="1370">  │ │ ├─┬ chalk@1.1.3 </tspan>
<tspan x="10" y="1386">  │ │ │ ├── ansi-styles@2.2.1 </tspan>
<tspan x="10" y="1402">  │ │ │ ├─┬ has-ansi@2.0.0 </tspan>
<tspan x="10" y="1418">  │ │ │ │ └── ansi-regex@2.1.1 </tspan>
<tspan x="10" y="1434">  │ │ │ ├── strip-ansi@3.0.1 </tspan>
<tspan x="10" y="1450">  │ │ │ └── supports-color@2.0.0 </tspan>
<tspan x="10" y="1466">  │ │ └── time-stamp@1.0.1 </tspan>
<tspan x="10" y="1482">  │ ├─┬ gulplog@1.0.0 </tspan>
<tspan x="10" y="1498">  │ │ └── glogg@1.0.0 </tspan>
<tspan x="10" y="1514">  │ ├─┬ has-gulplog@0.1.0 </tspan>
<tspan x="10" y="1530">  │ │ └── sparkles@1.0.0 </tspan>
<tspan x="10" y="1546">  │ ├── lodash._reescape@3.0.0 </tspan>
<tspan x="10" y="1562">  │ ├── lodash._reevaluate@3.0.0 </tspan>
<tspan x="10" y="1578">  │ ├── lodash._reinterpolate@3.0.0 </tspan>
<tspan x="10" y="1594">  │ ├─┬ lodash.template@3.6.2 </tspan>
<tspan x="10" y="1610">  │ │ ├── lodash._basecopy@3.0.1 </tspan>
<tspan x="10" y="1626">  │ │ ├── lodash._basetostring@3.0.1 </tspan>
<tspan x="10" y="1642">  │ │ ├── lodash._basevalues@3.0.0 </tspan>
<tspan x="10" y="1658">  │ │ ├── lodash._isiterateecall@3.0.9 </tspan>
<tspan x="10" y="1674">  │ │ ├─┬ lodash.escape@3.2.0 </tspan>
<tspan x="10" y="1690">  │ │ │ └── lodash._root@3.0.1 </tspan>
<tspan x="10" y="1706">  │ │ ├─┬ lodash.keys@3.1.2 </tspan>
<tspan x="10" y="1722">  │ │ │ ├── lodash._getnative@3.9.1 </tspan>
<tspan x="10" y="1738">  │ │ │ ├── lodash.isarguments@3.1.0 </tspan>
<tspan x="10" y="1754">  │ │ │ └── lodash.isarray@3.0.4 </tspan>
<tspan x="10" y="1770">  │ │ ├── lodash.restparam@3.6.1 </tspan>
<tspan x="10" y="1786">  │ │ └── lodash.templatesettings@3.1.1 </tspan>
<tspan x="10" y="1802">  │ ├── minimist@1.2.0 </tspan>
<tspan x="10" y="1818">  │ ├─┬ multipipe@0.1.2 </tspan>
<tspan x="10" y="1834">  │ │ └─┬ duplexer2@0.0.2 </tspan>
<tspan x="10" y="1850">  │ │   └── readable-stream@1.1.14 </tspan>
<tspan x="10" y="1866">  │ ├── object-assign@3.0.0 </tspan>
<tspan x="10" y="1882">  │ ├── replace-ext@0.0.1 </tspan>
<tspan x="10" y="1898">  │ ├─┬ through2@2.0.3 </tspan>
<tspan x="10" y="1914">  │ │ └─┬ readable-stream@2.2.9 </tspan>
<tspan x="10" y="1930">  │ │   ├── buffer-shims@1.0.0 </tspan>
<tspan x="10" y="1946">  │ │   ├── isarray@1.0.0 </tspan>
<tspan x="10" y="1962">  │ │   ├── process-nextick-args@1.0.7 </tspan>
<tspan x="10" y="1978">  │ │   ├── string_decoder@1.0.0 </tspan>
<tspan x="10" y="1994">  │ │   └── util-deprecate@1.0.2 </tspan>
<tspan x="10" y="2010">  │ └─┬ vinyl@0.5.3 </tspan>
<tspan x="10" y="2026">  │   ├── clone@1.0.2 </tspan>
<tspan x="10" y="2042">  │   └── clone-stats@0.0.1 </tspan>
<tspan x="10" y="2058">  ├── object-assign@2.1.1 </tspan>
<tspan x="10" y="2074">  ├─┬ through2@0.6.5 </tspan>
<tspan x="10" y="2090">  │ ├─┬ readable-stream@1.0.34 </tspan>
<tspan x="10" y="2106">  │ │ ├── core-util-is@1.0.2 </tspan>
<tspan x="10" y="2122">  │ │ ├── inherits@2.0.3 </tspan>
<tspan x="10" y="2138">  │ │ ├── isarray@0.0.1 </tspan>
<tspan x="10" y="2154">  │ │ └── string_decoder@0.10.31 </tspan>
<tspan x="10" y="2170">  │ └── xtend@4.0.1 </tspan>
<tspan x="10" y="2186">  └── vinyl-sourcemaps-apply@0.1.4</tspan>
</text>
</svg>
